# xmcd
#
# Track frame offsets:
#	210
#	14045
#	27123
#	40631
#	54938
#	68128
#	80864
#	94939
#	109779
#	123657
#	137335
#	149836
#	163342
#	176979
#	190052
#	202929
#	216042
#	228409
#	240763
#	255275
#	268360
#	282806
#	296957
#
# Disc length: 4142 seconds
#
# Revision: 1
# Processed by: cddbd v1.4PL0 Copyright (c) Steve Scherf et al.
# Submitted via: CDmax 1.7.6
#
DISCID=5a102c17
DTITLE=Skillet-Lickers - Volume 1 (1926-1927)
DYEAR=1900
DGENRE=
TTITLE0=Hand Me Down My Walking Cane
TTITLE1=Bully Of The Town
TTITLE2=Pass Around The Bottle And We'll All Take A Drink
TTITLE3=Alabama Jubilee
TTITLE4=Watermelon On The Vine
TTITLE5=Don't You Hear Jerusalem Moan
TTITLE6=Ya Gotta Quit Kickin' My Dog Aroun'
TTITLE7=Turkey In The Straw
TTITLE8=Polly Woddle Doo
TTITLE9=Uncle Bud
TTITLE10=Dance All Night With A Bottle In Your Hand
TTITLE11=She'll Be Coming 'Round The Mountian
TTITLE12=I Don't Love Nobody
TTITLE13=I Got Mine
TTITLE14=Shortening Bread
TTITLE15=Old Joe Clark
TTITLE16=Casey Jones
TTITLE17=The Wreck Of The Southern Old 97
TTITLE18=Dixie
TTITLE19=Run Nigger Run
TTITLE20=The Girl I Left Behind Me
TTITLE21=The Old Grey Mare
TTITLE22=John Henry (The Steel Drivin' Man)
EXTD=
EXTT0=
EXTT1=
EXTT2=
EXTT3=
EXTT4=
EXTT5=
EXTT6=
EXTT7=
EXTT8=
EXTT9=
EXTT10=
EXTT11=
EXTT12=
EXTT13=
EXTT14=
EXTT15=
EXTT16=
EXTT17=
EXTT18=
EXTT19=
EXTT20=
EXTT21=
EXTT22=
PLAYORDER=
